M48
; DRILL file KiCad 10.0.5 date 2026-08-28T00:42:37
; FORMAT={-:-/ absolute / metric / decimal}
; #@! TF.CreationDate,2026-08-28T00:42:37+03:00
; #@! TF.GenerationSoftware,Kicad,Pcbnew,10.0.5
; #@! TF.FileFunction,Plated,1,2,PTH
FMAT,2
METRIC
; #@! TA.AperFunction,Plated,PTH,ViaDrill
T1C0.300
; #@! TA.AperFunction,Plated,PTH,ComponentDrill
T2C0.700
; #@! TA.AperFunction,Plated,PTH,ComponentDrill
T3C0.800
; #@! TA.AperFunction,Plated,PTH,ViaDrill
T4C1.000
; #@! TA.AperFunction,Plated,PTH,ComponentDrill
T5C1.000
%
G90
G05
T1
X67.138Y-110.376
X68.661Y-112.818
X69.07Y-89.157
X69.07Y-90.4
X69.501Y-114.578
X70.431Y-114.588
X72.152Y-115.328
X73.14Y-115.186
X77.42Y-115.11
X79.742Y-112.058
X80.02Y-114.39
X82.062Y-115.11
X88.17Y-110.79
X88.92Y-111.29
X89.47Y-109.79
X90.12Y-110.44
X91.65Y-104.3
X94.025Y-59.655
X96.72Y-113.89
X100.67Y-55.89
X101.236Y-56.456
X101.97Y-55.925
X102.082Y-57.497
X103.2Y-114.19
X109.685Y-94.825
X110.27Y-115.69
X116.57Y-53.39
X118.07Y-53.79
X119.92Y-54.04
X120.621Y-84.608
X121.271Y-84.042
X121.921Y-54.1
X121.921Y-83.308
X122.571Y-83.903
X122.86Y-54.09
X123.221Y-83.19
X123.624Y-54.59
X123.871Y-83.816
X124.122Y-55.216
X124.521Y-83.19
X124.758Y-55.701
X126.199Y-56.099
X126.98Y-56.273
X127.756Y-56.76
X133.925Y-115.49
X135.53Y-114.19
X136.906Y-114.633
X141.79Y-114.04
X142.64Y-112.87
X142.645Y-88.18
X146.55Y-112.849
X147.11Y-114.149
X171.62Y-64.54
X171.62Y-69.64
X183.43Y-88.76
X185.11Y-80.51
X186.93Y-98.158
X188.928Y-102.382
X189.419Y-103.791
X190.73Y-89.975
X195.93Y-98.71
X201.036Y-52.265
X201.835Y-52.315
X202.485Y-51.665
X212.096Y-64.89
X212.76Y-64.401
T2
X96.1Y-111.24
X103.72Y-111.24
X126.52Y-60.54
X134.14Y-60.54
X136.13Y-57.94
X136.13Y-62.84
X138.9Y-110.14
X143.75Y-57.94
X143.75Y-62.84
X146.52Y-110.14
X188.02Y-73.58
X195.02Y-84.62
X195.02Y-92.24
X195.64Y-73.58
T3
X50.92Y-117.64
X50.92Y-122.64
X52.22Y-95.34
X52.22Y-97.88
X52.22Y-100.42
X52.22Y-102.96
X52.22Y-105.5
X52.22Y-108.04
X52.22Y-110.58
X52.22Y-113.12
X54.06Y-118.14
X56.6Y-118.14
X59.14Y-118.14
X59.84Y-95.34
X59.84Y-97.88
X59.84Y-100.42
X59.84Y-102.96
X59.84Y-105.5
X59.84Y-108.04
X59.84Y-110.58
X59.84Y-113.12
X61.68Y-118.14
X64.22Y-118.14
X64.9Y-87.86
X64.9Y-90.4
X64.9Y-92.94
X64.9Y-95.48
X64.9Y-98.02
X64.9Y-100.56
X64.9Y-103.1
X64.9Y-105.64
X64.92Y-82.94
X66.76Y-118.14
X69.3Y-118.14
X69.42Y-55.94
X69.42Y-58.48
X69.42Y-61.02
X69.42Y-63.56
X69.42Y-66.1
X69.42Y-68.64
X69.42Y-71.18
X69.42Y-73.72
X69.42Y-76.26
X69.42Y-78.8
X69.92Y-82.94
X71.84Y-118.14
X72.52Y-87.86
X72.52Y-90.4
X72.52Y-92.94
X72.52Y-95.48
X72.52Y-98.02
X72.52Y-100.56
X72.52Y-103.1
X72.52Y-105.64
X73.12Y-82.94
X74.38Y-118.14
X75.215Y-87.86
X75.215Y-90.4
X75.215Y-92.94
X75.215Y-95.48
X75.215Y-98.02
X75.215Y-100.56
X75.215Y-103.1
X75.215Y-105.64
X76.92Y-118.14
X77.04Y-55.94
X77.04Y-58.48
X77.04Y-61.02
X77.04Y-63.56
X77.04Y-66.1
X77.04Y-68.64
X77.04Y-71.18
X77.04Y-73.72
X77.04Y-76.26
X77.04Y-78.8
X78.12Y-82.94
X79.6Y-56.938
X79.6Y-59.478
X79.6Y-62.018
X79.6Y-64.558
X79.6Y-67.098
X79.6Y-69.638
X79.6Y-72.178
X79.6Y-74.718
X79.6Y-77.258
X79.6Y-79.798
X80.24Y-118.14
X82.78Y-118.14
X82.835Y-87.86
X82.835Y-90.4
X82.835Y-92.94
X82.835Y-95.48
X82.835Y-98.02
X82.835Y-100.56
X82.835Y-103.1
X82.835Y-105.64
X85.32Y-118.14
X85.58Y-87.86
X85.58Y-90.4
X85.58Y-92.94
X85.58Y-95.48
X85.58Y-98.02
X85.58Y-100.56
X85.58Y-103.1
X85.58Y-105.64
X86.92Y-83.94
X87.22Y-56.938
X87.22Y-59.478
X87.22Y-62.018
X87.22Y-64.558
X87.22Y-67.098
X87.22Y-69.638
X87.22Y-72.178
X87.22Y-74.718
X87.22Y-77.258
X87.22Y-79.798
X87.86Y-118.14
X90.4Y-118.14
X91.92Y-83.94
X92.94Y-118.14
X93.2Y-87.86
X93.2Y-90.4
X93.2Y-92.94
X93.2Y-95.48
X93.2Y-98.02
X93.2Y-100.56
X93.2Y-103.1
X93.2Y-105.64
X95.48Y-118.14
X95.62Y-108.64
X96.02Y-87.84
X96.02Y-90.38
X96.02Y-92.92
X96.02Y-95.46
X96.02Y-98.0
X96.02Y-100.54
X96.02Y-103.08
X96.02Y-105.62
X97.92Y-55.94
X97.92Y-58.48
X97.92Y-61.02
X97.92Y-63.56
X97.92Y-66.1
X97.92Y-68.64
X97.92Y-71.18
X97.92Y-73.72
X97.92Y-76.26
X97.92Y-78.8
X98.02Y-118.14
X100.56Y-118.14
X100.62Y-108.64
X103.1Y-118.14
X103.64Y-87.84
X103.64Y-90.38
X103.64Y-92.92
X103.64Y-95.46
X103.64Y-98.0
X103.64Y-100.54
X103.64Y-103.08
X103.64Y-105.62
X105.54Y-55.94
X105.54Y-58.48
X105.54Y-61.02
X105.54Y-63.56
X105.54Y-66.1
X105.54Y-68.64
X105.54Y-71.18
X105.54Y-73.72
X105.54Y-76.26
X105.54Y-78.8
X106.38Y-118.14
X106.42Y-87.8
X106.42Y-90.34
X106.42Y-92.88
X106.42Y-95.42
X106.42Y-97.96
X106.42Y-100.5
X106.42Y-103.04
X106.42Y-105.58
X107.22Y-109.59
X108.6Y-55.936
X108.6Y-58.476
X108.6Y-61.016
X108.6Y-63.556
X108.6Y-66.096
X108.6Y-68.636
X108.6Y-71.176
X108.6Y-73.716
X108.6Y-76.256
X108.6Y-78.796
X108.92Y-118.14
X111.46Y-118.14
X112.22Y-109.59
X114.0Y-118.14
X114.04Y-87.8
X114.04Y-90.34
X114.04Y-92.88
X114.04Y-95.42
X114.04Y-97.96
X114.04Y-100.5
X114.04Y-103.04
X114.04Y-105.58
X115.52Y-109.59
X116.22Y-55.936
X116.22Y-58.476
X116.22Y-61.016
X116.22Y-63.556
X116.22Y-66.096
X116.22Y-68.636
X116.22Y-71.176
X116.22Y-73.716
X116.22Y-76.256
X116.22Y-78.796
X116.54Y-118.14
X117.12Y-87.8
X117.12Y-90.34
X117.12Y-92.88
X117.12Y-95.42
X117.12Y-97.96
X117.12Y-100.5
X117.12Y-103.04
X117.12Y-105.58
X119.08Y-118.14
X120.52Y-109.59
X121.62Y-118.14
X124.16Y-118.14
X124.74Y-87.8
X124.74Y-90.34
X124.74Y-92.88
X124.74Y-95.42
X124.74Y-97.96
X124.74Y-100.5
X124.74Y-103.04
X124.74Y-105.58
X126.7Y-118.14
X127.61Y-111.5
X128.215Y-87.85
X128.215Y-90.39
X128.215Y-92.93
X128.215Y-95.47
X128.215Y-98.01
X128.215Y-100.55
X128.215Y-103.09
X128.215Y-105.63
X129.24Y-118.14
X131.08Y-65.155
X131.08Y-72.775
X132.52Y-118.14
X132.61Y-111.5
X133.62Y-65.155
X133.62Y-72.775
X135.06Y-118.14
X135.835Y-87.85
X135.835Y-90.39
X135.835Y-92.93
X135.835Y-95.47
X135.835Y-98.01
X135.835Y-100.55
X135.835Y-103.09
X135.835Y-105.63
X136.16Y-65.155
X136.16Y-72.775
X137.6Y-118.14
X138.7Y-65.155
X138.7Y-72.775
X139.187Y-87.85
X139.187Y-90.39
X139.187Y-92.93
X139.187Y-95.47
X139.187Y-98.01
X139.187Y-100.55
X139.187Y-103.09
X139.187Y-105.63
X139.31Y-84.34
X140.14Y-118.14
X141.24Y-65.155
X141.24Y-72.775
X142.68Y-118.14
X143.78Y-65.155
X143.78Y-72.775
X144.31Y-84.34
X145.22Y-118.14
X145.91Y-77.22
X146.32Y-65.155
X146.32Y-72.775
X146.59Y-57.94
X146.59Y-62.94
X146.807Y-87.85
X146.807Y-90.39
X146.807Y-92.93
X146.807Y-95.47
X146.807Y-98.01
X146.807Y-100.55
X146.807Y-103.09
X146.807Y-105.63
X147.76Y-118.14
X150.3Y-118.14
X150.91Y-77.22
X152.84Y-118.14
X153.4Y-88.68
X153.4Y-91.22
X153.4Y-93.76
X153.4Y-96.3
X153.4Y-98.84
X153.4Y-101.38
X153.4Y-103.92
X153.4Y-106.46
X153.4Y-109.0
X153.4Y-111.54
X153.82Y-60.76
X153.82Y-63.3
X153.82Y-65.84
X153.82Y-68.38
X153.82Y-70.92
X153.82Y-73.46
X153.82Y-76.0
X153.82Y-78.54
X153.82Y-81.08
X153.82Y-83.62
X154.21Y-114.69
X155.38Y-118.14
X159.21Y-114.69
X161.02Y-88.68
X161.02Y-91.22
X161.02Y-93.76
X161.02Y-96.3
X161.02Y-98.84
X161.02Y-101.38
X161.02Y-103.92
X161.02Y-106.46
X161.02Y-109.0
X161.02Y-111.54
X161.44Y-60.76
X161.44Y-63.3
X161.44Y-65.84
X161.44Y-68.38
X161.44Y-70.92
X161.44Y-73.46
X161.44Y-76.0
X161.44Y-78.54
X161.44Y-81.08
X161.44Y-83.62
X168.62Y-56.94
X168.62Y-59.48
X168.62Y-62.02
X168.62Y-64.56
X168.62Y-67.1
X168.62Y-69.64
X168.62Y-72.18
X168.62Y-77.14
X168.62Y-79.68
X168.62Y-82.22
X168.62Y-84.76
X168.62Y-87.3
X168.62Y-89.84
X168.62Y-92.38
X173.16Y-97.35
X173.16Y-99.89
X173.16Y-102.43
X173.16Y-104.97
X173.16Y-107.51
X173.16Y-110.05
X173.16Y-112.59
X176.22Y-116.34
X176.24Y-56.94
X176.24Y-59.48
X176.24Y-62.02
X176.24Y-64.56
X176.24Y-67.1
X176.24Y-69.64
X176.24Y-72.18
X176.24Y-77.14
X176.24Y-79.68
X176.24Y-82.22
X176.24Y-84.76
X176.24Y-87.3
X176.24Y-89.84
X176.24Y-92.38
X180.27Y-53.36
X180.78Y-97.35
X180.78Y-99.89
X180.78Y-102.43
X180.78Y-104.97
X180.78Y-107.51
X180.78Y-110.05
X180.78Y-112.59
X180.89Y-89.6
X180.89Y-94.6
X181.22Y-116.34
X184.82Y-57.74
X184.82Y-62.74
X185.27Y-53.36
X188.0Y-55.0
X188.0Y-70.24
X190.54Y-55.0
X190.54Y-70.24
X192.29Y-95.97
X192.86Y-106.03
X193.08Y-55.0
X193.08Y-70.24
X195.62Y-55.0
X195.62Y-70.24
X195.79Y-75.91
X195.79Y-80.91
X197.29Y-95.97
X197.61Y-85.61
X197.61Y-90.61
X197.86Y-106.03
X198.16Y-55.0
X198.16Y-70.24
X198.18Y-52.5
X200.68Y-105.82
X200.68Y-113.44
X200.69Y-73.44
X200.69Y-81.06
X200.69Y-84.22
X200.69Y-91.84
X200.69Y-95.0
X200.69Y-102.62
X200.7Y-55.0
X200.7Y-70.24
X203.22Y-105.82
X203.22Y-113.44
X203.23Y-73.44
X203.23Y-81.06
X203.23Y-84.22
X203.23Y-91.84
X203.23Y-95.0
X203.23Y-102.62
X203.24Y-55.0
X203.24Y-70.24
X205.76Y-105.82
X205.76Y-113.44
X205.77Y-73.44
X205.77Y-81.06
X205.77Y-84.22
X205.77Y-91.84
X205.77Y-95.0
X205.77Y-102.62
X205.78Y-55.0
X205.78Y-70.24
X205.8Y-52.5
X208.3Y-105.82
X208.3Y-113.44
X208.31Y-73.44
X208.31Y-81.06
X208.31Y-84.22
X208.31Y-91.84
X208.31Y-95.0
X208.31Y-102.62
X208.32Y-55.0
X208.32Y-70.24
X210.84Y-105.82
X210.84Y-113.44
X210.85Y-73.44
X210.85Y-81.06
X210.85Y-84.22
X210.85Y-91.84
X210.85Y-95.0
X210.85Y-102.62
X210.86Y-55.0
X210.86Y-70.24
X213.38Y-105.82
X213.38Y-113.44
X213.39Y-73.44
X213.39Y-81.06
X213.39Y-84.22
X213.39Y-91.84
X213.39Y-95.0
X213.39Y-102.62
X213.4Y-55.0
X213.4Y-70.24
X215.92Y-105.82
X215.92Y-113.44
X215.93Y-73.44
X215.93Y-81.06
X215.93Y-84.22
X215.93Y-91.84
X215.93Y-95.0
X215.93Y-102.62
X215.94Y-55.0
X215.94Y-70.24
T4
X78.578Y-88.298
X111.578Y-99.891
X126.52Y-77.24
X148.28Y-68.06
X150.98Y-62.204
X172.81Y-55.21
T5
X67.92Y-123.6
X67.92Y-126.14
X69.42Y-48.4
X69.42Y-50.94
X70.46Y-123.6
X70.46Y-126.14
X71.96Y-48.4
X71.96Y-50.94
X73.0Y-123.6
X73.0Y-126.14
X74.5Y-48.4
X74.5Y-50.94
X75.54Y-123.6
X75.54Y-126.14
X77.04Y-48.4
X77.04Y-50.94
X78.08Y-123.6
X78.08Y-126.14
X79.58Y-48.4
X79.58Y-50.94
X80.62Y-123.6
X80.62Y-126.14
X82.12Y-48.4
X82.12Y-50.94
X83.16Y-123.6
X83.16Y-126.14
X84.66Y-48.4
X84.66Y-50.94
X85.7Y-123.6
X85.7Y-126.14
X87.2Y-48.4
X87.2Y-50.94
X88.24Y-123.6
X88.24Y-126.14
X89.74Y-48.4
X89.74Y-50.94
X90.78Y-123.6
X90.78Y-126.14
X92.28Y-48.4
X92.28Y-50.94
X93.32Y-123.6
X93.32Y-126.14
X94.82Y-48.4
X94.82Y-50.94
X95.86Y-123.6
X95.86Y-126.14
X97.36Y-48.4
X97.36Y-50.94
X98.4Y-123.6
X98.4Y-126.14
X99.9Y-48.4
X99.9Y-50.94
X100.94Y-123.6
X100.94Y-126.14
X102.44Y-48.4
X102.44Y-50.94
X103.48Y-123.6
X103.48Y-126.14
X104.98Y-48.4
X104.98Y-50.94
X106.02Y-123.6
X106.02Y-126.14
X107.52Y-48.4
X107.52Y-50.94
X108.56Y-123.6
X108.56Y-126.14
X110.06Y-48.4
X110.06Y-50.94
X111.1Y-123.6
X111.1Y-126.14
X112.6Y-48.4
X112.6Y-50.94
X113.64Y-123.6
X113.64Y-126.14
X115.14Y-48.4
X115.14Y-50.94
X116.18Y-123.6
X116.18Y-126.14
X117.68Y-48.4
X117.68Y-50.94
X118.72Y-123.6
X118.72Y-126.14
X120.22Y-48.4
X120.22Y-50.94
X121.26Y-123.6
X121.26Y-126.14
X122.76Y-48.4
X122.76Y-50.94
X123.8Y-123.6
X123.8Y-126.14
X125.3Y-48.4
X125.3Y-50.94
X126.34Y-123.6
X126.34Y-126.14
X127.84Y-48.4
X127.84Y-50.94
X128.88Y-123.6
X128.88Y-126.14
X130.38Y-48.4
X130.38Y-50.94
X131.42Y-123.6
X131.42Y-126.14
X131.67Y-75.67
X132.92Y-48.4
X132.92Y-50.94
X133.96Y-123.6
X133.96Y-126.14
X134.21Y-75.67
X135.46Y-48.4
X135.46Y-50.94
X136.5Y-123.6
X136.5Y-126.14
X136.75Y-75.67
X138.0Y-48.4
X138.0Y-50.94
X139.04Y-123.6
X139.04Y-126.14
X140.54Y-48.4
X140.54Y-50.94
X141.58Y-123.6
X141.58Y-126.14
X143.08Y-48.4
X143.08Y-50.94
X144.12Y-123.6
X144.12Y-126.14
X145.62Y-48.4
X145.62Y-50.94
X146.66Y-123.6
X146.66Y-126.14
X148.16Y-48.4
X148.16Y-50.94
X151.79Y-48.4
X151.79Y-50.94
X154.33Y-48.4
X154.33Y-50.94
X156.87Y-48.4
X156.87Y-50.94
X159.41Y-48.4
X159.41Y-50.94
X159.57Y-123.6
X159.57Y-126.14
X161.95Y-48.4
X161.95Y-50.94
X162.11Y-123.6
X162.11Y-126.14
X164.49Y-48.4
X164.49Y-50.94
X164.65Y-123.6
X164.65Y-126.14
X167.03Y-48.4
X167.03Y-50.94
X167.19Y-123.6
X167.19Y-126.14
X169.57Y-48.4
X169.57Y-50.94
X169.73Y-123.6
X169.73Y-126.14
X172.27Y-123.6
X172.27Y-126.14
X174.81Y-123.6
X174.81Y-126.14
X177.35Y-123.6
X177.35Y-126.14
X190.02Y-123.6
X190.02Y-126.14
X192.56Y-123.6
X192.56Y-126.14
X195.1Y-123.6
X195.1Y-126.14
X197.64Y-123.6
X197.64Y-126.14
X200.18Y-123.6
X200.18Y-126.14
X202.72Y-123.6
X202.72Y-126.14
X205.26Y-123.6
X205.26Y-126.14
X207.8Y-123.6
X207.8Y-126.14
X210.34Y-123.6
X210.34Y-126.14
X212.88Y-123.6
X212.88Y-126.14
M30
