%TF.GenerationSoftware,KiCad,Pcbnew,10.0.5*%
%TF.CreationDate,2026-08-28T00:42:35+03:00*%
%TF.ProjectId,Mezzanine_Rev_0.1C,4d657a7a-616e-4696-9e65-5f5265765f30,rev?*%
%TF.SameCoordinates,Original*%
%TF.FileFunction,Soldermask,Bot*%
%TF.FilePolarity,Negative*%
%FSLAX46Y46*%
G04 Gerber Fmt 4.6, Leading zero omitted, Abs format (unit mm)*
G04 Created by KiCad (PCBNEW 10.0.5) date 2026-08-28 00:42:35*
%MOMM*%
%LPD*%
G01*
G04 APERTURE LIST*
G04 Aperture macros list*
%AMRoundRect*
0 Rectangle with rounded corners*
0 $1 Rounding radius*
0 $2 $3 $4 $5 $6 $7 $8 $9 X,Y pos of 4 corners*
0 Add a 4 corners polygon primitive as box body*
4,1,4,$2,$3,$4,$5,$6,$7,$8,$9,$2,$3,0*
0 Add four circle primitives for the rounded corners*
1,1,$1+$1,$2,$3*
1,1,$1+$1,$4,$5*
1,1,$1+$1,$6,$7*
1,1,$1+$1,$8,$9*
0 Add four rect primitives between the rounded corners*
20,1,$1+$1,$2,$3,$4,$5,0*
20,1,$1+$1,$4,$5,$6,$7,0*
20,1,$1+$1,$6,$7,$8,$9,0*
20,1,$1+$1,$8,$9,$2,$3,0*%
G04 Aperture macros list end*
%ADD10C,1.600000*%
%ADD11RoundRect,0.250000X-0.550000X-0.550000X0.550000X-0.550000X0.550000X0.550000X-0.550000X0.550000X0*%
%ADD12R,1.600000X1.600000*%
%ADD13RoundRect,0.250000X0.550000X0.550000X-0.550000X0.550000X-0.550000X-0.550000X0.550000X-0.550000X0*%
%ADD14C,1.400000*%
%ADD15R,1.700000X1.700000*%
%ADD16C,1.700000*%
%ADD17RoundRect,0.250000X0.550000X-0.550000X0.550000X0.550000X-0.550000X0.550000X-0.550000X-0.550000X0*%
%ADD18RoundRect,0.250000X0.600000X-0.600000X0.600000X0.600000X-0.600000X0.600000X-0.600000X-0.600000X0*%
G04 APERTURE END LIST*
D10*
%TO.C,C20*%
X146590013Y-57940018D03*
X146590013Y-62940018D03*
%TD*%
D11*
%TO.C,DD2*%
X139186551Y-87850018D03*
D10*
X139186551Y-90390018D03*
X139186551Y-92930018D03*
X139186551Y-95470018D03*
X139186551Y-98010018D03*
X139186551Y-100550018D03*
X139186551Y-103090018D03*
X139186551Y-105630018D03*
X146806551Y-105630018D03*
X146806551Y-103090018D03*
X146806551Y-100550018D03*
X146806551Y-98010018D03*
X146806551Y-95470018D03*
X146806551Y-92930018D03*
X146806551Y-90390018D03*
X146806551Y-87850018D03*
%TD*%
D12*
%TO.C,RN4*%
X155380013Y-118140018D03*
D10*
X152840013Y-118140018D03*
X150300013Y-118140018D03*
X147760013Y-118140018D03*
X145220013Y-118140018D03*
X142680013Y-118140018D03*
X140140013Y-118140018D03*
X137600013Y-118140018D03*
X135060013Y-118140018D03*
X132520013Y-118140018D03*
%TD*%
D13*
%TO.C,J3*%
X105540000Y-78800018D03*
D10*
X105540000Y-76260018D03*
X105540000Y-73720018D03*
X105540000Y-71180018D03*
X105540000Y-68640018D03*
X105540000Y-66100018D03*
X105540000Y-63560018D03*
X105540000Y-61020018D03*
X105540000Y-58480018D03*
X105540000Y-55940018D03*
X97920000Y-55940018D03*
X97920000Y-58480018D03*
X97920000Y-61020018D03*
X97920000Y-63560018D03*
X97920000Y-66100018D03*
X97920000Y-68640018D03*
X97920000Y-71180018D03*
X97920000Y-73720018D03*
X97920000Y-76260018D03*
X97920000Y-78800018D03*
%TD*%
D14*
%TO.C,R6*%
X126520013Y-60540018D03*
X134140013Y-60540018D03*
%TD*%
D10*
%TO.C,C6*%
X107220013Y-109590018D03*
X112220013Y-109590018D03*
%TD*%
%TO.C,C3*%
X78120013Y-82940018D03*
X73120013Y-82940018D03*
%TD*%
D11*
%TO.C,DD4*%
X96020013Y-87840018D03*
D10*
X96020013Y-90380018D03*
X96020013Y-92920018D03*
X96020013Y-95460018D03*
X96020013Y-98000018D03*
X96020013Y-100540018D03*
X96020013Y-103080018D03*
X96020013Y-105620018D03*
X103640013Y-105620018D03*
X103640013Y-103080018D03*
X103640013Y-100540018D03*
X103640013Y-98000018D03*
X103640013Y-95460018D03*
X103640013Y-92920018D03*
X103640013Y-90380018D03*
X103640013Y-87840018D03*
%TD*%
%TO.C,C9*%
X144310013Y-84340018D03*
X139310013Y-84340018D03*
%TD*%
D15*
%TO.C,J8*%
X151790013Y-50940000D03*
D16*
X151790013Y-48400000D03*
X154330013Y-50940000D03*
X154330013Y-48400000D03*
X156870013Y-50940000D03*
X156870013Y-48400000D03*
X159410013Y-50940000D03*
X159410013Y-48400000D03*
X161950013Y-50940000D03*
X161950013Y-48400000D03*
X164490013Y-50940000D03*
X164490013Y-48400000D03*
X167030013Y-50940000D03*
X167030013Y-48400000D03*
X169570013Y-50940000D03*
X169570013Y-48400000D03*
%TD*%
D11*
%TO.C,DD7*%
X64900013Y-87860018D03*
D10*
X64900013Y-90400018D03*
X64900013Y-92940018D03*
X64900013Y-95480018D03*
X64900013Y-98020018D03*
X64900013Y-100560018D03*
X64900013Y-103100018D03*
X64900013Y-105640018D03*
X72520013Y-105640018D03*
X72520013Y-103100018D03*
X72520013Y-100560018D03*
X72520013Y-98020018D03*
X72520013Y-95480018D03*
X72520013Y-92940018D03*
X72520013Y-90400018D03*
X72520013Y-87860018D03*
%TD*%
D13*
%TO.C,U7*%
X161440013Y-83620018D03*
D10*
X161440013Y-81080018D03*
X161440013Y-78540018D03*
X161440013Y-76000018D03*
X161440013Y-73460018D03*
X161440013Y-70920018D03*
X161440013Y-68380018D03*
X161440013Y-65840018D03*
X161440013Y-63300018D03*
X161440013Y-60760018D03*
X153820013Y-60760018D03*
X153820013Y-63300018D03*
X153820013Y-65840018D03*
X153820013Y-68380018D03*
X153820013Y-70920018D03*
X153820013Y-73460018D03*
X153820013Y-76000018D03*
X153820013Y-78540018D03*
X153820013Y-81080018D03*
X153820013Y-83620018D03*
%TD*%
D11*
%TO.C,DD10*%
X117120013Y-87800018D03*
D10*
X117120013Y-90340018D03*
X117120013Y-92880018D03*
X117120013Y-95420018D03*
X117120013Y-97960018D03*
X117120013Y-100500018D03*
X117120013Y-103040018D03*
X117120013Y-105580018D03*
X124740013Y-105580018D03*
X124740013Y-103040018D03*
X124740013Y-100500018D03*
X124740013Y-97960018D03*
X124740013Y-95420018D03*
X124740013Y-92880018D03*
X124740013Y-90340018D03*
X124740013Y-87800018D03*
%TD*%
%TO.C,C10*%
X154210013Y-114690018D03*
X159210013Y-114690018D03*
%TD*%
%TO.C,C17*%
X195790013Y-75910018D03*
X195790013Y-80910018D03*
%TD*%
D14*
%TO.C,R2*%
X195640013Y-73580018D03*
X188020013Y-73580018D03*
%TD*%
D17*
%TO.C,U1*%
X200690013Y-102620018D03*
D10*
X203230013Y-102620018D03*
X205770013Y-102620018D03*
X208310013Y-102620018D03*
X210850013Y-102620018D03*
X213390013Y-102620018D03*
X215930013Y-102620018D03*
X215930013Y-95000018D03*
X213390013Y-95000018D03*
X210850013Y-95000018D03*
X208310013Y-95000018D03*
X205770013Y-95000018D03*
X203230013Y-95000018D03*
X200690013Y-95000018D03*
%TD*%
D13*
%TO.C,U6*%
X161020013Y-111540018D03*
D10*
X161020013Y-109000018D03*
X161020013Y-106460018D03*
X161020013Y-103920018D03*
X161020013Y-101380018D03*
X161020013Y-98840018D03*
X161020013Y-96300018D03*
X161020013Y-93760018D03*
X161020013Y-91220018D03*
X161020013Y-88680018D03*
X153400013Y-88680018D03*
X153400013Y-91220018D03*
X153400013Y-93760018D03*
X153400013Y-96300018D03*
X153400013Y-98840018D03*
X153400013Y-101380018D03*
X153400013Y-103920018D03*
X153400013Y-106460018D03*
X153400013Y-109000018D03*
X153400013Y-111540018D03*
%TD*%
%TO.C,C16*%
X197610013Y-85610018D03*
X197610013Y-90610018D03*
%TD*%
%TO.C,C5*%
X100620013Y-108640018D03*
X95620013Y-108640018D03*
%TD*%
D13*
%TO.C,J2*%
X77040000Y-78800018D03*
D10*
X77040000Y-76260018D03*
X77040000Y-73720018D03*
X77040000Y-71180018D03*
X77040000Y-68640018D03*
X77040000Y-66100018D03*
X77040000Y-63560018D03*
X77040000Y-61020018D03*
X77040000Y-58480018D03*
X77040000Y-55940018D03*
X69420000Y-55940018D03*
X69420000Y-58480018D03*
X69420000Y-61020018D03*
X69420000Y-63560018D03*
X69420000Y-66100018D03*
X69420000Y-68640018D03*
X69420000Y-71180018D03*
X69420000Y-73720018D03*
X69420000Y-76260018D03*
X69420000Y-78800018D03*
%TD*%
D15*
%TO.C,J7*%
X136750013Y-75670018D03*
D16*
X134210013Y-75670018D03*
X131670013Y-75670018D03*
%TD*%
D18*
%TO.C,J5*%
X159570013Y-126140018D03*
D16*
X159570013Y-123600018D03*
X162110013Y-126140018D03*
X162110013Y-123600018D03*
X164650013Y-126140018D03*
X164650013Y-123600018D03*
X167190013Y-126140018D03*
X167190013Y-123600018D03*
X169730013Y-126140018D03*
X169730013Y-123600018D03*
X172270013Y-126140018D03*
X172270013Y-123600018D03*
X174810013Y-126140018D03*
X174810013Y-123600018D03*
X177350013Y-126140018D03*
X177350013Y-123600018D03*
%TD*%
D14*
%TO.C,R3*%
X103720013Y-111240018D03*
X96100013Y-111240018D03*
%TD*%
D10*
%TO.C,C13*%
X180890013Y-89600018D03*
X180890013Y-94600018D03*
%TD*%
%TO.C,C18*%
X184820013Y-57740018D03*
X184820013Y-62740018D03*
%TD*%
%TO.C,C11*%
X145910013Y-77220018D03*
X150910013Y-77220018D03*
%TD*%
D11*
%TO.C,U8*%
X173160013Y-97350018D03*
D10*
X173160013Y-99890018D03*
X173160013Y-102430018D03*
X173160013Y-104970018D03*
X173160013Y-107510018D03*
X173160013Y-110050018D03*
X173160013Y-112590018D03*
X180780013Y-112590018D03*
X180780013Y-110050018D03*
X180780013Y-107510018D03*
X180780013Y-104970018D03*
X180780013Y-102430018D03*
X180780013Y-99890018D03*
X180780013Y-97350018D03*
%TD*%
D11*
%TO.C,DD3*%
X128215013Y-87850018D03*
D10*
X128215013Y-90390018D03*
X128215013Y-92930018D03*
X128215013Y-95470018D03*
X128215013Y-98010018D03*
X128215013Y-100550018D03*
X128215013Y-103090018D03*
X128215013Y-105630018D03*
X135835013Y-105630018D03*
X135835013Y-103090018D03*
X135835013Y-100550018D03*
X135835013Y-98010018D03*
X135835013Y-95470018D03*
X135835013Y-92930018D03*
X135835013Y-90390018D03*
X135835013Y-87850018D03*
%TD*%
%TO.C,C19*%
X197860013Y-106030018D03*
X192860013Y-106030018D03*
%TD*%
D14*
%TO.C,R1*%
X195020013Y-84620018D03*
X195020013Y-92240018D03*
%TD*%
D17*
%TO.C,U11*%
X131080013Y-72775018D03*
D10*
X133620013Y-72775018D03*
X136160013Y-72775018D03*
X138700013Y-72775018D03*
X141240013Y-72775018D03*
X143780013Y-72775018D03*
X146320013Y-72775018D03*
X146320013Y-65155018D03*
X143780013Y-65155018D03*
X141240013Y-65155018D03*
X138700013Y-65155018D03*
X136160013Y-65155018D03*
X133620013Y-65155018D03*
X131080013Y-65155018D03*
%TD*%
%TO.C,C4*%
X91920013Y-83940018D03*
X86920013Y-83940018D03*
%TD*%
D11*
%TO.C,DD8*%
X75215013Y-87860018D03*
D10*
X75215013Y-90400018D03*
X75215013Y-92940018D03*
X75215013Y-95480018D03*
X75215013Y-98020018D03*
X75215013Y-100560018D03*
X75215013Y-103100018D03*
X75215013Y-105640018D03*
X82835013Y-105640018D03*
X82835013Y-103100018D03*
X82835013Y-100560018D03*
X82835013Y-98020018D03*
X82835013Y-95480018D03*
X82835013Y-92940018D03*
X82835013Y-90400018D03*
X82835013Y-87860018D03*
%TD*%
D12*
%TO.C,RN2*%
X80240013Y-118140018D03*
D10*
X82780013Y-118140018D03*
X85320013Y-118140018D03*
X87860013Y-118140018D03*
X90400013Y-118140018D03*
X92940013Y-118140018D03*
X95480013Y-118140018D03*
X98020013Y-118140018D03*
X100560013Y-118140018D03*
X103100013Y-118140018D03*
%TD*%
D14*
%TO.C,R5*%
X143750013Y-62840018D03*
X136130013Y-62840018D03*
%TD*%
D10*
%TO.C,C7*%
X115520013Y-109590018D03*
X120520013Y-109590018D03*
%TD*%
D12*
%TO.C,RN3*%
X106380013Y-118140018D03*
D10*
X108920013Y-118140018D03*
X111460013Y-118140018D03*
X114000013Y-118140018D03*
X116540013Y-118140018D03*
X119080013Y-118140018D03*
X121620013Y-118140018D03*
X124160013Y-118140018D03*
X126700013Y-118140018D03*
X129240013Y-118140018D03*
%TD*%
D11*
%TO.C,DD1*%
X106420013Y-87800018D03*
D10*
X106420013Y-90340018D03*
X106420013Y-92880018D03*
X106420013Y-95420018D03*
X106420013Y-97960018D03*
X106420013Y-100500018D03*
X106420013Y-103040018D03*
X106420013Y-105580018D03*
X114040013Y-105580018D03*
X114040013Y-103040018D03*
X114040013Y-100500018D03*
X114040013Y-97960018D03*
X114040013Y-95420018D03*
X114040013Y-92880018D03*
X114040013Y-90340018D03*
X114040013Y-87800018D03*
%TD*%
D17*
%TO.C,U2*%
X200690013Y-91840018D03*
D10*
X203230013Y-91840018D03*
X205770013Y-91840018D03*
X208310013Y-91840018D03*
X210850013Y-91840018D03*
X213390013Y-91840018D03*
X215930013Y-91840018D03*
X215930013Y-84220018D03*
X213390013Y-84220018D03*
X210850013Y-84220018D03*
X208310013Y-84220018D03*
X205770013Y-84220018D03*
X203230013Y-84220018D03*
X200690013Y-84220018D03*
%TD*%
D17*
%TO.C,U3*%
X200690013Y-81060018D03*
D10*
X203230013Y-81060018D03*
X205770013Y-81060018D03*
X208310013Y-81060018D03*
X210850013Y-81060018D03*
X213390013Y-81060018D03*
X215930013Y-81060018D03*
X215930013Y-73440018D03*
X213390013Y-73440018D03*
X210850013Y-73440018D03*
X208310013Y-73440018D03*
X205770013Y-73440018D03*
X203230013Y-73440018D03*
X200690013Y-73440018D03*
%TD*%
%TO.C,C12*%
X181220013Y-116340018D03*
X176220013Y-116340018D03*
%TD*%
%TO.C,C15*%
X197290013Y-95970018D03*
X192290013Y-95970018D03*
%TD*%
D18*
%TO.C,J6*%
X190020013Y-126140018D03*
D16*
X190020013Y-123600018D03*
X192560013Y-126140018D03*
X192560013Y-123600018D03*
X195100013Y-126140018D03*
X195100013Y-123600018D03*
X197640013Y-126140018D03*
X197640013Y-123600018D03*
X200180013Y-126140018D03*
X200180013Y-123600018D03*
X202720013Y-126140018D03*
X202720013Y-123600018D03*
X205260013Y-126140018D03*
X205260013Y-123600018D03*
X207800013Y-126140018D03*
X207800013Y-123600018D03*
X210340013Y-126140018D03*
X210340013Y-123600018D03*
X212880013Y-126140018D03*
X212880013Y-123600018D03*
%TD*%
D11*
%TO.C,U9*%
X168620013Y-77140018D03*
D10*
X168620013Y-79680018D03*
X168620013Y-82220018D03*
X168620013Y-84760018D03*
X168620013Y-87300018D03*
X168620013Y-89840018D03*
X168620013Y-92380018D03*
X176240013Y-92380018D03*
X176240013Y-89840018D03*
X176240013Y-87300018D03*
X176240013Y-84760018D03*
X176240013Y-82220018D03*
X176240013Y-79680018D03*
X176240013Y-77140018D03*
%TD*%
D17*
%TO.C,U4*%
X188000013Y-70240018D03*
D10*
X190540013Y-70240018D03*
X193080013Y-70240018D03*
X195620013Y-70240018D03*
X198160013Y-70240018D03*
X200700013Y-70240018D03*
X203240013Y-70240018D03*
X205780013Y-70240018D03*
X208320013Y-70240018D03*
X210860013Y-70240018D03*
X213400013Y-70240018D03*
X215940013Y-70240018D03*
X215940013Y-55000018D03*
X213400013Y-55000018D03*
X210860013Y-55000018D03*
X208320013Y-55000018D03*
X205780013Y-55000018D03*
X203240013Y-55000018D03*
X200700013Y-55000018D03*
X198160013Y-55000018D03*
X195620013Y-55000018D03*
X193080013Y-55000018D03*
X190540013Y-55000018D03*
X188000013Y-55000018D03*
%TD*%
D11*
%TO.C,U10*%
X168620013Y-56940018D03*
D10*
X168620013Y-59480018D03*
X168620013Y-62020018D03*
X168620013Y-64560018D03*
X168620013Y-67100018D03*
X168620013Y-69640018D03*
X168620013Y-72180018D03*
X176240013Y-72180018D03*
X176240013Y-69640018D03*
X176240013Y-67100018D03*
X176240013Y-64560018D03*
X176240013Y-62020018D03*
X176240013Y-59480018D03*
X176240013Y-56940018D03*
%TD*%
D17*
%TO.C,U5*%
X200680013Y-113440018D03*
D10*
X203220013Y-113440018D03*
X205760013Y-113440018D03*
X208300013Y-113440018D03*
X210840013Y-113440018D03*
X213380013Y-113440018D03*
X215920013Y-113440018D03*
X215920013Y-105820018D03*
X213380013Y-105820018D03*
X210840013Y-105820018D03*
X208300013Y-105820018D03*
X205760013Y-105820018D03*
X203220013Y-105820018D03*
X200680013Y-105820018D03*
%TD*%
D11*
%TO.C,D1*%
X198180013Y-52500018D03*
D10*
X205800013Y-52500018D03*
%TD*%
D11*
%TO.C,DD9*%
X85580013Y-87860018D03*
D10*
X85580013Y-90400018D03*
X85580013Y-92940018D03*
X85580013Y-95480018D03*
X85580013Y-98020018D03*
X85580013Y-100560018D03*
X85580013Y-103100018D03*
X85580013Y-105640018D03*
X93200013Y-105640018D03*
X93200013Y-103100018D03*
X93200013Y-100560018D03*
X93200013Y-98020018D03*
X93200013Y-95480018D03*
X93200013Y-92940018D03*
X93200013Y-90400018D03*
X93200013Y-87860018D03*
%TD*%
D18*
%TO.C,J4*%
X67920013Y-126140018D03*
D16*
X67920013Y-123600018D03*
X70460013Y-126140018D03*
X70460013Y-123600018D03*
X73000013Y-126140018D03*
X73000013Y-123600018D03*
X75540013Y-126140018D03*
X75540013Y-123600018D03*
X78080013Y-126140018D03*
X78080013Y-123600018D03*
X80620013Y-126140018D03*
X80620013Y-123600018D03*
X83160013Y-126140018D03*
X83160013Y-123600018D03*
X85700013Y-126140018D03*
X85700013Y-123600018D03*
X88240013Y-126140018D03*
X88240013Y-123600018D03*
X90780013Y-126140018D03*
X90780013Y-123600018D03*
X93320013Y-126140018D03*
X93320013Y-123600018D03*
X95860013Y-126140018D03*
X95860013Y-123600018D03*
X98400013Y-126140018D03*
X98400013Y-123600018D03*
X100940013Y-126140018D03*
X100940013Y-123600018D03*
X103480013Y-126140018D03*
X103480013Y-123600018D03*
X106020013Y-126140018D03*
X106020013Y-123600018D03*
X108560013Y-126140018D03*
X108560013Y-123600018D03*
X111100013Y-126140018D03*
X111100013Y-123600018D03*
X113640013Y-126140018D03*
X113640013Y-123600018D03*
X116180013Y-126140018D03*
X116180013Y-123600018D03*
X118720013Y-126140018D03*
X118720013Y-123600018D03*
X121260013Y-126140018D03*
X121260013Y-123600018D03*
X123800013Y-126140018D03*
X123800013Y-123600018D03*
X126340013Y-126140018D03*
X126340013Y-123600018D03*
X128880013Y-126140018D03*
X128880013Y-123600018D03*
X131420013Y-126140018D03*
X131420013Y-123600018D03*
X133960013Y-126140018D03*
X133960013Y-123600018D03*
X136500013Y-126140018D03*
X136500013Y-123600018D03*
X139040013Y-126140018D03*
X139040013Y-123600018D03*
X141580013Y-126140018D03*
X141580013Y-123600018D03*
X144120013Y-126140018D03*
X144120013Y-123600018D03*
X146660013Y-126140018D03*
X146660013Y-123600018D03*
%TD*%
D13*
%TO.C,DX4*%
X116220013Y-78796018D03*
D10*
X116220013Y-76256018D03*
X116220013Y-73716018D03*
X116220013Y-71176018D03*
X116220013Y-68636018D03*
X116220013Y-66096018D03*
X116220013Y-63556018D03*
X116220013Y-61016018D03*
X116220013Y-58476018D03*
X116220013Y-55936018D03*
X108600013Y-55936018D03*
X108600013Y-58476018D03*
X108600013Y-61016018D03*
X108600013Y-63556018D03*
X108600013Y-66096018D03*
X108600013Y-68636018D03*
X108600013Y-71176018D03*
X108600013Y-73716018D03*
X108600013Y-76256018D03*
X108600013Y-78796018D03*
%TD*%
D12*
%TO.C,RN1*%
X54060013Y-118140018D03*
D10*
X56600013Y-118140018D03*
X59140013Y-118140018D03*
X61680013Y-118140018D03*
X64220013Y-118140018D03*
X66760013Y-118140018D03*
X69300013Y-118140018D03*
X71840013Y-118140018D03*
X74380013Y-118140018D03*
X76920013Y-118140018D03*
%TD*%
%TO.C,C14*%
X185270013Y-53360018D03*
X180270013Y-53360018D03*
%TD*%
%TO.C,C2*%
X69920013Y-82940018D03*
X64920013Y-82940018D03*
%TD*%
%TO.C,C1*%
X50920013Y-122640018D03*
X50920013Y-117640018D03*
%TD*%
D13*
%TO.C,DX3*%
X87220013Y-79798000D03*
D10*
X87220013Y-77258000D03*
X87220013Y-74718000D03*
X87220013Y-72178000D03*
X87220013Y-69638000D03*
X87220013Y-67098000D03*
X87220013Y-64558000D03*
X87220013Y-62018000D03*
X87220013Y-59478000D03*
X87220013Y-56938000D03*
X79600013Y-56938000D03*
X79600013Y-59478000D03*
X79600013Y-62018000D03*
X79600013Y-64558000D03*
X79600013Y-67098000D03*
X79600013Y-69638000D03*
X79600013Y-72178000D03*
X79600013Y-74718000D03*
X79600013Y-77258000D03*
X79600013Y-79798000D03*
%TD*%
D14*
%TO.C,R7*%
X146520013Y-110140018D03*
X138900013Y-110140018D03*
%TD*%
D11*
%TO.C,DD6*%
X52220013Y-95340018D03*
D10*
X52220013Y-97880018D03*
X52220013Y-100420018D03*
X52220013Y-102960018D03*
X52220013Y-105500018D03*
X52220013Y-108040018D03*
X52220013Y-110580018D03*
X52220013Y-113120018D03*
X59840013Y-113120018D03*
X59840013Y-110580018D03*
X59840013Y-108040018D03*
X59840013Y-105500018D03*
X59840013Y-102960018D03*
X59840013Y-100420018D03*
X59840013Y-97880018D03*
X59840013Y-95340018D03*
%TD*%
%TO.C,C8*%
X132610013Y-111500018D03*
X127610013Y-111500018D03*
%TD*%
D14*
%TO.C,R4*%
X143750013Y-57940018D03*
X136130013Y-57940018D03*
%TD*%
D15*
%TO.C,J1*%
X69420000Y-50940000D03*
D16*
X69420000Y-48400000D03*
X71960000Y-50940000D03*
X71960000Y-48400000D03*
X74500000Y-50940000D03*
X74500000Y-48400000D03*
X77040000Y-50940000D03*
X77040000Y-48400000D03*
X79580000Y-50940000D03*
X79580000Y-48400000D03*
X82120000Y-50940000D03*
X82120000Y-48400000D03*
X84660000Y-50940000D03*
X84660000Y-48400000D03*
X87200000Y-50940000D03*
X87200000Y-48400000D03*
X89740000Y-50940000D03*
X89740000Y-48400000D03*
X92280000Y-50940000D03*
X92280000Y-48400000D03*
X94820000Y-50940000D03*
X94820000Y-48400000D03*
X97360000Y-50940000D03*
X97360000Y-48400000D03*
X99900000Y-50940000D03*
X99900000Y-48400000D03*
X102440000Y-50940000D03*
X102440000Y-48400000D03*
X104980000Y-50940000D03*
X104980000Y-48400000D03*
X107520000Y-50940000D03*
X107520000Y-48400000D03*
X110060000Y-50940000D03*
X110060000Y-48400000D03*
X112600000Y-50940000D03*
X112600000Y-48400000D03*
X115140000Y-50940000D03*
X115140000Y-48400000D03*
X117680000Y-50940000D03*
X117680000Y-48400000D03*
X120220000Y-50940000D03*
X120220000Y-48400000D03*
X122760000Y-50940000D03*
X122760000Y-48400000D03*
X125300000Y-50940000D03*
X125300000Y-48400000D03*
X127840000Y-50940000D03*
X127840000Y-48400000D03*
X130380000Y-50940000D03*
X130380000Y-48400000D03*
X132920000Y-50940000D03*
X132920000Y-48400000D03*
X135460000Y-50940000D03*
X135460000Y-48400000D03*
X138000000Y-50940000D03*
X138000000Y-48400000D03*
X140540000Y-50940000D03*
X140540000Y-48400000D03*
X143080000Y-50940000D03*
X143080000Y-48400000D03*
X145620000Y-50940000D03*
X145620000Y-48400000D03*
X148160000Y-50940000D03*
X148160000Y-48400000D03*
%TD*%
M02*
